<svg xmlns="http://www.w3.org/2000/svg" width="23" height="25" fill="none"><path fill="url(#a)" d="M22 15.174c0 3.906-3.095 8.511-10.5 8.826-7.405-.315-10.585-4.92-10.498-8.826.086-3.905 3.847-5.04 3.847-5.04C4.452 7.09 5.226 1 11.501 1s7.049 6.09 6.652 9.135c0 0 3.847 1.134 3.847 5.04Z"/><path stroke="#7450DA" stroke-width="2" d="M7.861 11.08c-.648-1.953-.828-5.86 3.64-5.86s4.246 3.907 3.577 5.86m-7.217 0h7.217m-7.217 0c-.795 2.268-1.97 7.043-.314 8 .476.275 1.058.484 1.695.628m5.836-8.628c.753 2.288 1.895 7.093.439 8-.463.289-1.072.508-1.757.655m-4.518-.027c.25-.628.878-2.014 2.259-2.014 1.38 0 2.196 1.435 2.259 2.04m-4.518-.026c1.428.324 3.129.324 4.518.027M11.5 24c7.405-.315 10.5-4.92 10.5-8.826 0-3.905-3.847-5.04-3.847-5.04C18.55 7.09 17.776 1 11.5 1s-7.05 6.09-6.652 9.135c0 0-3.76 1.134-3.847 5.04C.915 19.08 4.095 23.684 11.5 24Z"/><defs><linearGradient id="a" x1="11.5" x2="11.5" y1="1" y2="24" gradientUnits="userSpaceOnUse"><stop stop-color="#D6C9F0"/><stop offset="1" stop-color="#EFECF9"/></linearGradient></defs></svg>