<svg xmlns="http://www.w3.org/2000/svg" width="25" height="18" fill="none"><path fill="url(#a)" d="m15.508 3.987 6.347 1.183c.657.314 1.996 1.258 2.092 2.527.096 1.27.04 4.383 0 5.78h-2.619c0 1.318-1.08 3.023-3.125 3.023-2.046 0-3.126-1.543-3.126-3.022H10C10 14.93 8.98 16.5 7.057 16.5c-1.924 0-3.15-1.49-3.15-3.022H1V7.159c0-1.09.5-2.876 1.573-2.876 1.827 0 2.212-.027 2.74.51.257.261.785.794 1.491 1.277l-.36-3.965c-.008-.35.134-1.06.769-1.103.635-.043.922.502.986.78l1.346 5.27c2.02.027 3.078 0 3.607 0 .743 0 1.293-.432 1.875-1.32.301-.46.505-1.04.48-1.745Z"/><path stroke="#29DD45" stroke-linecap="round" stroke-width="2" d="M21.328 13.478h2.619c.04-1.398.096-4.512 0-5.78-.096-1.27-1.435-2.214-2.092-2.528l-6.347-1.183a2.938 2.938 0 0 1-.481 1.745m6.301 7.746c0-1.452-1.106-2.978-3.125-2.978-2.02 0-3.126 1.553-3.126 2.978m6.251 0c0 1.317-1.08 3.022-3.125 3.022-2.046 0-3.126-1.543-3.126-3.022m0 0H10m0 0c0-1.118-.887-2.978-2.943-2.978-2.057 0-3.15 1.445-3.15 2.978m6.093 0C10 14.93 8.98 16.5 7.057 16.5c-1.924 0-3.15-1.49-3.15-3.022m0 0H1V7.159c0-1.09.5-2.876 1.573-2.876 1.827 0 2.212-.027 2.74.51.257.261.785.794 1.491 1.277m2.741.982c2.02.027 3.078 0 3.607 0 .743 0 1.293-.432 1.875-1.32m-5.482 1.32c-1.04-.014-1.99-.47-2.74-.982m2.74.982L8.2 1.782c-.064-.278-.351-.823-.986-.78-.635.043-.777.753-.77 1.103l.361 3.965m8.223-.338-2.395-1.823m0 0 .631-.727m-.631.727L12 4.636"/><defs><linearGradient id="a" x1="12.5" x2="12.5" y1="1" y2="17" gradientUnits="userSpaceOnUse"><stop stop-color="#CAF0C9"/><stop offset="1" stop-color="#ECF9EC"/></linearGradient></defs></svg>