<svg xmlns="http://www.w3.org/2000/svg" width="25" height="19" fill="none"><path fill="url(#a)" d="M11.337 1.364c.67.665.447 1.553.447 8.873h8.864C20.215 17.113 15.732 18 13.273 18H7.985C3.514 18 1 13.786 1 10.237c0-3.55.714-5.001 1.745-6.211C5.65.618 10.666.699 11.337 1.364Z"/><path stroke="#FFB524" stroke-linecap="round" stroke-linejoin="round" stroke-width="2" d="M11.784 10.237c0-7.32.223-8.208-.447-8.873C10.667.7 5.65.618 2.745 4.026 1.714 5.236 1 6.688 1 10.236m10.784 0H1m10.784 0h8.864m-8.864 0-3.8-6.21m3.8 6.21-6.705-3.77M1 10.236C1 13.787 3.515 18 7.984 18h5.29c2.458 0 6.94-.887 7.374-7.763m0 0c.168-2.662.67-3.328 3.352-3.328"/><defs><linearGradient id="a" x1="12.5" x2="12.5" y1="1" y2="18" gradientUnits="userSpaceOnUse"><stop stop-color="#FFE4AF"/><stop offset="1" stop-color="#FFF6E4"/></linearGradient></defs></svg>