<svg xmlns="http://www.w3.org/2000/svg" width="19" height="25" fill="none"><path stroke="#32B6FF" stroke-linecap="round" stroke-width="2" d="M1 24v-1.389m0 0c1.77-1.273 6.02-2.083 8.854-2.083 2.623 0 6.054.694 7.768 1.807.25.162.378.448.378.746V24 13.951m-17 8.66v-8.66m17 0s-1.063 2.084-8.146 2.084M18 13.95V9.43m-8.146 6.605C2.765 16.035 1 13.95 1 13.95m8.854 2.084v-5.91M1 13.95V9.43m0 0V4.04a.91.91 0 0 1 .42-.786C3.068 2.245 6.49 1 9.854 1c3.365 0 6.394 1.246 7.793 2.256a.89.89 0 0 1 .353.73V9.43m-17 0s6.8 0 8.854.694m0 0C11.957 9.43 18 9.43 18 9.43"/></svg>