<svg xmlns="http://www.w3.org/2000/svg" width="25" height="25" fill="none"><path fill="url(#a)" d="M2 19.536V13.65c0-3.853 5.685-3.236 7.179-5.002.647-.765 2.177-2.97 3.001-3.854.824-.882 3.354-1.222 6.826 0 3.766 1.326 3.825 2.853 3.825 3.854.216 2.119.235 5.269 0 6.27-.53.94-4.06 2.793-4.884 3.205-1.707.854-2.354 3.562-3.413 4.622-1.06 1.059-4.06 1.589-7.473 1.028-3.223-.529-4.688-3.178-5.061-4.237Z"/><path stroke="#DA50AB" stroke-width="2" d="M2 13.65v5.886c.373 1.06 1.838 3.708 5.06 4.237 3.413.56 6.415.031 7.474-1.028 1.059-1.06 1.706-3.768 3.413-4.622.823-.412 4.354-2.264 4.884-3.206.235-1 .216-4.15 0-6.269M2 13.65c0-3.853 5.685-3.236 7.179-5.002.647-.765 2.177-2.97 3.001-3.854.824-.882 3.354-1.222 6.826 0 3.766 1.326 3.825 2.853 3.825 3.854M2 13.65c.333 1.236 1.871 3.861 5.355 4.473 3.825.672 5.178-.146 6.12-.734.941-.589 2.236-2.68 3.53-3.444 1.295-.765 5.826-2.06 5.826-5.297"/><circle cx="4.5" cy="8.5" r=".5" fill="#DA50AB"/><circle cx="9" cy="3" r="1" fill="url(#b)" stroke="#DA50AB" stroke-width="2"/><defs><linearGradient id="a" x1="12.5" x2="12.5" y1="4" y2="24" gradientUnits="userSpaceOnUse"><stop stop-color="#EEC9F0"/><stop offset="1" stop-color="#F8ECF9"/></linearGradient><linearGradient id="b" x1="9" x2="9" y1="1" y2="5" gradientUnits="userSpaceOnUse"><stop stop-color="#EEC9F0"/><stop offset="1" stop-color="#F8ECF9"/></linearGradient></defs></svg>