<svg xmlns="http://www.w3.org/2000/svg" width="25" height="18" fill="none"><path stroke="#FFC5D6" stroke-linecap="round" stroke-linejoin="round" stroke-miterlimit="10" d="M23.02 2.81c-.624-1.076-1.3-1.274-2.678-1.349-1.377-.09-4.84-.127-7.84-.127-3.005 0-6.47.037-7.845.127-1.376.077-2.053.273-2.683 1.35C1.33 3.886 1 5.736 1 8.996v.012c0 3.246.331 5.11.974 6.173.628 1.075 1.306 1.271 2.683 1.362 1.375.076 4.839.122 7.845.122 3 0 6.463-.046 7.841-.122 1.379-.09 2.055-.287 2.679-1.362.65-1.064.978-2.928.978-6.173v-.012c-.002-3.26-.328-5.11-.98-6.187v0Z" clip-rule="evenodd"/><path stroke="#FFC5D6" stroke-linecap="round" stroke-linejoin="round" stroke-miterlimit="10" d="M10.2 12.833V5.167L16.331 9 10.2 12.833Z" clip-rule="evenodd"/></svg>