<svg xmlns="http://www.w3.org/2000/svg" width="27" height="21" fill="none"><path fill="#fff" d="M21.403 15.179h-9.056a3 3 0 0 1-2.87-2.125L6.75 4.11h16.199a3 3 0 0 1 2.87 3.875l-1.546 5.069a3 3 0 0 1-2.87 2.125Z"/><path stroke="#fff" stroke-width="2" d="M0 1.036h3.528a3 3 0 0 1 2.818 1.969L6.75 4.11m0 0 2.727 8.944a3 3 0 0 0 2.87 2.125h9.056a3 3 0 0 0 2.87-2.125l1.545-5.069a3 3 0 0 0-2.87-3.875H6.75Z"/><circle cx="12.857" cy="19.036" r="1.929" fill="#fff"/><circle cx="21.214" cy="19.036" r="1.929" fill="#fff"/></svg>