<svg xmlns="http://www.w3.org/2000/svg" width="31" height="22" fill="none"><path stroke="#D03664" stroke-width="2" d="M4.27 15.088H2.525c-.72 0-1.188.734-.789 1.333 1.25 1.88 3.423 3.785 5.803 3.785s4.553-1.905 5.803-3.785c.4-.6-.069-1.333-.789-1.333H10.81m-6.54 0h6.54m-6.54 0 2.34-5.9c.334-.843 1.526-.843 1.86 0l2.34 5.9M20.192 15.088h-1.745c-.72 0-1.188.734-.79 1.333 1.252 1.88 3.423 3.785 5.804 3.785 2.38 0 4.553-1.905 5.803-3.785.4-.6-.069-1.333-.789-1.333h-1.744m-6.54 0h6.54m-6.54 0 2.34-5.9c.334-.843 1.526-.843 1.86 0l2.34 5.9"/><circle cx="15.784" cy="4.206" r="2.412" stroke="#D03664" stroke-width="2"/><path stroke="#D03664" stroke-linecap="round" stroke-width="2" d="m6.687 5.69 6.254-1.138M18.628 4.552l5.686 1.138"/></svg>