<svg xmlns="http://www.w3.org/2000/svg" width="31" height="21" fill="none"><path stroke="#A5A5A5" stroke-width="2" d="M4.27 14.294H2.525c-.72 0-1.188.733-.789 1.333 1.25 1.88 3.423 3.784 5.803 3.784 2.381 0 4.553-1.904 5.803-3.784.4-.6-.069-1.333-.789-1.333H10.81m-6.54 0h6.54m-6.54 0 2.34-5.901c.334-.842 1.526-.842 1.86 0l2.34 5.9M20.191 14.294h-1.744c-.72 0-1.188.733-.79 1.333 1.251 1.88 3.423 3.784 5.804 3.784 2.38 0 4.552-1.904 5.803-3.784.399-.6-.07-1.333-.79-1.333H26.73m-6.539 0h6.54m-6.54 0 2.34-5.901c.334-.842 1.525-.842 1.86 0l2.34 5.9"/><circle cx="15.785" cy="3.412" r="2.412" stroke="#A5A5A5" stroke-width="2"/><path stroke="#A5A5A5" stroke-linecap="round" stroke-width="2" d="m6.687 4.895 6.254-1.137M18.628 3.758l5.686 1.137"/></svg>