<svg xmlns="http://www.w3.org/2000/svg" width="25" height="25" fill="none"><path fill="url(#a)" d="m7.99 23.338-6.282-4.534a2 2 0 0 1-.451-2.792l1.987-2.753 2.255-3.125L7.754 7.01l2.48-3.437s4.112-2.207 7.218.035c3.106 2.241 2.308 6.839 2.308 6.839l-8.978 12.44a2 2 0 0 1-2.792.45Z"/><path stroke="#505EDA" stroke-width="2" d="m19.76 10.447-8.978 12.44a2 2 0 0 1-2.792.45l-6.282-4.533a2 2 0 0 1-.451-2.792l1.987-2.753m16.516-2.812L14.997 7.01l-4.763-3.437m9.526 6.874s.798-4.598-2.308-6.84c-3.106-2.24-7.218-.034-7.218-.034m0 0L7.754 7.01m0 0L10.929 9.3M7.754 7.01l-2.255 3.124m0 0 3.175 2.292m-3.175-2.292L3.244 13.26m0 0 3.175 2.292"/><circle cx="18.369" cy="2.338" r="1" fill="url(#b)" stroke="#505EDA" stroke-width="1.916" transform="rotate(35.818 18.369 2.338)"/><defs><linearGradient id="a" x1="17.452" x2="4.849" y1="3.608" y2="21.071" gradientUnits="userSpaceOnUse"><stop stop-color="#ACB5FF"/><stop offset="1" stop-color="#E9E9FF"/></linearGradient><linearGradient id="b" x1="18.369" x2="18.369" y1=".38" y2="4.296" gradientUnits="userSpaceOnUse"><stop stop-color="#D6C9F0"/><stop offset="0" stop-color="#D1C9F0"/><stop offset="1" stop-color="#EFECF9"/></linearGradient></defs></svg>